<?xml version="1.0" standalone="no"?>
<!DOCTYPE svg PUBLIC "-//W3C//DTD SVG 20010904//EN"
 "http://www.w3.org/TR/2001/REC-SVG-20010904/DTD/svg10.dtd">
<svg version="1.0" xmlns="http://www.w3.org/2000/svg"
 width="796.000000pt" height="494.000000pt" viewBox="0 0 796.000000 494.000000"
 preserveAspectRatio="xMidYMid meet">
<metadata>
Created by potrace 1.14, written by Peter Selinger 2001-2017
</metadata>
<g transform="translate(0.000000,494.000000) scale(0.100000,-0.100000)"
fill="#000000" stroke="none">
<path d="M3665 3695 c-165 -13 -301 -24 -302 -24 -1 -1 -61 -100 -133 -221
l-131 -220 -84 0 -84 0 -107 -156 -107 -157 14 -368 14 -369 -27 0 c-26 0 -28
-3 -28 -42 2 -96 37 -479 46 -487 5 -5 77 -46 159 -91 83 -45 154 -85 158 -89
4 -5 12 -55 16 -113 l9 -106 253 -303 254 -302 235 -94 c129 -51 245 -96 257
-99 16 -4 107 59 421 294 219 165 401 306 404 314 3 7 18 111 34 230 16 119
32 214 36 212 10 -7 171 56 184 71 18 24 129 536 117 543 -8 5 -98 795 -115
1021 l-3 33 -525 274 -525 273 -70 -1 c-38 0 -205 -11 -370 -23z m945 -269
l525 -274 3 -63 c1 -35 23 -256 47 -490 25 -235 45 -438 45 -453 l0 -26 -91 0
c-89 0 -91 0 -86 23 3 12 11 67 18 122 l12 100 -57 94 c-32 51 -62 99 -69 105
-9 9 -1180 351 -1704 498 -24 7 -42 24 -69 65 -64 100 -69 75 71 311 l126 212
42 1 c33 0 637 44 657 47 3 1 241 -122 530 -272z m-1474 -273 c64 -100 68 -78
-52 -294 l-107 -194 17 -244 c9 -134 16 -244 14 -245 -2 -1 -56 0 -120 2
l-118 4 -1 72 c0 39 -6 202 -13 361 l-12 290 103 153 104 152 74 0 74 0 37
-57z m509 -232 l410 -118 8 -589 c4 -324 10 -635 13 -691 l6 -103 34 0 c42 0
43 -8 4 -45 l-30 -29 -44 43 c-24 24 -49 40 -54 37 -6 -3 14 -30 44 -58 l55
-52 54 54 c30 30 52 57 47 61 -4 4 -25 9 -47 11 l-40 3 -3 145 c-9 528 -18
1196 -15 1199 1 2 180 -47 395 -109 216 -62 407 -117 425 -122 26 -7 42 -26
90 -106 l59 -97 -82 -590 c-45 -324 -85 -614 -89 -643 l-7 -53 -392 -295
c-216 -161 -397 -294 -402 -294 -5 0 -115 42 -244 94 l-235 93 -251 299 -251
300 -50 694 -50 695 106 193 c58 105 110 192 116 192 5 0 195 -54 420 -119z
m-636 -777 c5 -4 52 -637 48 -640 -7 -5 -302 166 -304 177 -5 28 -33 406 -33
439 l0 35 142 -3 c79 -2 145 -6 147 -8z m2241 -53 c0 -22 -111 -496 -118 -501
-13 -12 -153 -62 -158 -58 -4 5 60 495 71 546 5 21 10 22 105 22 55 0 100 -4
100 -9z"/>
<path d="M4190 2212 c0 -16 56 -21 338 -28 177 -4 262 -3 262 4 0 16 -56 21
-337 28 -178 4 -263 3 -263 -4z"/>
<path d="M3450 2059 c-87 -61 -105 -83 -73 -92 40 -12 361 -19 367 -9 7 12
-176 162 -196 162 -7 -1 -51 -28 -98 -61z m174 -24 l69 -55 -74 1 c-41 1 -105
4 -143 8 l-68 6 68 48 c38 26 71 47 74 47 3 -1 36 -25 74 -55z"/>
<path d="M4440 2049 c-140 -102 -139 -103 82 -95 205 8 238 12 238 30 0 14
-193 136 -213 135 -7 0 -55 -32 -107 -70z m192 -6 l78 -48 -92 -8 c-51 -4
-122 -6 -157 -5 l-63 3 73 53 c41 28 76 52 78 52 3 0 40 -21 83 -47z"/>
<path d="M3890 1056 c0 -14 182 -136 203 -136 31 0 297 96 297 107 0 18 -20
20 -245 32 -253 14 -255 14 -255 -3z m368 -33 l54 -6 -104 -33 c-57 -19 -107
-34 -113 -34 -5 0 -41 21 -80 46 l-70 45 130 -6 c72 -3 154 -8 183 -12z"/>
</g>
</svg>
